<svg xmlns="http://www.w3.org/2000/svg" viewBox="0 0 52 52" zoom="1">
      <path d="M26 45.9c-6.5 0-11.8-5.3-11.8-11.8 0-6.5 5.3-11.8 11.8-11.8 6.5 0 11.8 5.3 11.8 11.8C37.8 40.6 32.5 45.9 26 45.9zM26 24.2c-5.4 0-9.8 4.4-9.8 9.8S20.6 43.9 26 43.9c5.4 0 9.8-4.4 9.8-9.8S31.4 24.2 26 24.2z"/>
      <polygon points="33 25 31 25 31 20 21 20 21 25 19 25 19 18 33 18"/>
      <polygon points="33 50 19 50 19 43.1 21 43.1 21 48 31 48 31 43.1 33 43.1"/>
      <polygon points="28.5 37.9 25 34.4 25 25.7 27 25.7 27 33.6 29.9 36.5"/>
      <path d="M40 36v-2c4.4 0 8-3.6 8-8 0-4.4-3.6-8-8-8 -0.4 0-0.8 0-1.3 0.1l-1 0.2 -0.1-1c-0.4-2.4-2.5-4.3-4.9-4.3 -0.1 0-0.2 0-0.2 0l-0.8 0.1 -0.3-0.8c-1.2-4.9-5.6-8.3-10.6-8.3 -6.1 0-11 4.9-11 11 0 0.8 0.1 1.6 0.3 2.3l0.2 0.9 -0.8 0.3C6.1 19.6 4 22.7 4 26 4 30.4 7.6 34 12 34v2c-5.5 0-10-4.5-10-10 0-3.9 2.3-7.4 5.8-9.1 -0.1-0.6-0.1-1.3-0.1-1.9 0-7.2 5.8-13 13-13 5.7 0 10.6 3.7 12.4 9 3 0.2 5.5 2.2 6.3 5C39.6 16 39.8 16 40 16c5.5 0 10 4.5 10 10C50 31.5 45.5 36 40 36z"/>
</svg>
